<svg xmlns="http://www.w3.org/2000/svg" viewBox="0 0 60 60"><path d="M47 0H13A13 13 0 0 0 0 13v34a13 13 0 0 0 13 13h34a13 13 0 0 0 13-13V13A13 13 0 0 0 47 0Zm.72 21.3-2.57 2.14a.78.78 0 0 0-.28.6v1.35a19.58 19.58 0 0 1-8.76 16.28 19.71 19.71 0 0 1-10.9 3.11 31.36 31.36 0 0 1-12.75-3 .79.79 0 0 1-.44-.88.77.77 0 0 1 .76-.62A17.23 17.23 0 0 0 19.5 39a.4.4 0 0 0 .23-.4.36.36 0 0 0-.3-.34 6.84 6.84 0 0 1-5-3.89.77.77 0 0 1 0-.63.79.79 0 0 1 .44-.44l.84-.34a.39.39 0 0 0 0-.7A8 8 0 0 1 12 26.33a.77.77 0 0 1 .2-.7.81.81 0 0 1 .69-.23l1.76.3a.41.41 0 0 0 .38-.16.38.38 0 0 0 0-.41 11.87 11.87 0 0 1-.72-7.71.8.8 0 0 1 .57-.61.79.79 0 0 1 .79.24c4.54 5.24 8.75 7.47 13.15 7a.39.39 0 0 0 .35-.39v-.56a7.79 7.79 0 0 1 12.47-6.27.79.79 0 0 0 .68.13l3.12-.96a.76.76 0 0 1 .81.26.78.78 0 0 1 .1.85l-.69 1.38a.77.77 0 0 0 0 .68.8.8 0 0 0 .52.43l1.24.31a.78.78 0 0 1 .57.58.77.77 0 0 1-.27.81Z" fill="#31ade6"></path></svg>